<svg width="25" height="24" viewBox="0 0 25 24" fill="none" xmlns="http://www.w3.org/2000/svg">
<g id="Group">
<path id="Vector" d="M1.50122 4.75073H4.23695C4.77689 6.73737 6.82508 7.91016 8.81173 7.37022C10.0877 7.02342 11.0844 6.02668 11.4312 4.75073H23.499C24.0512 4.75073 24.4989 4.30307 24.4989 3.75084C24.4989 3.19862 24.0512 2.75096 23.499 2.75096H11.4312C10.8913 0.764267 8.84308 -0.408523 6.85644 0.131424C5.58049 0.478217 4.58374 1.47496 4.23695 2.75091H1.50122C0.948994 2.75091 0.501335 3.19857 0.501335 3.7508C0.501335 4.30302 0.948994 4.75073 1.50122 4.75073Z" fill="#292C30"/>
<path id="Vector_2" d="M23.499 11.0006H20.7633C20.2244 9.01419 18.1774 7.84074 16.191 8.37957C14.914 8.72598 13.9164 9.72353 13.57 11.0006H1.50122C0.94899 11.0006 0.501331 11.4482 0.501331 12.0004C0.501331 12.5527 0.94899 13.0003 1.50122 13.0003H13.57C14.1089 14.9867 16.1559 16.1601 18.1423 15.6213C19.4193 15.2749 20.4169 14.2774 20.7633 13.0003H23.499C24.0512 13.0003 24.4989 12.5527 24.4989 12.0004C24.4989 11.4482 24.0512 11.0006 23.499 11.0006Z" fill="#292C30"/>
<path id="Vector_3" d="M23.499 19.2493H11.4312C10.8913 17.2627 8.84308 16.0899 6.85643 16.6298C5.58048 16.9766 4.58374 17.9734 4.23694 19.2493H1.50122C0.94899 19.2493 0.501331 19.697 0.501331 20.2492C0.501331 20.8014 0.94899 21.2491 1.50122 21.2491H4.23694C4.77689 23.2357 6.82508 24.4085 8.81172 23.8686C10.0877 23.5218 11.0844 22.525 11.4312 21.2491H23.499C24.0512 21.2491 24.4989 20.8014 24.4989 20.2492C24.4989 19.697 24.0512 19.2493 23.499 19.2493Z" fill="#292C30"/>
</g>
</svg>
